<svg xmlns="http://www.w3.org/2000/svg" viewBox="0 0 232.552 40"><defs><style>.a{fill:#1e3f5a;}.b{fill:#fff;}</style></defs><path class="a" d="M225.22,0H7.331A7.334,7.334,0,0,0,0,7.331V32.669A7.334,7.334,0,0,0,7.331,40H225.22a7.334,7.334,0,0,0,7.331-7.331V7.331A7.334,7.334,0,0,0,225.22,0Zm5.865,32.669a5.882,5.882,0,0,1-5.865,5.865H74.135V1.466H225.22a5.882,5.882,0,0,1,5.865,5.865Z" transform="translate(0)"/><path class="b" d="M74.207,46.357a9.742,9.742,0,0,1-.557,3.4,7.446,7.446,0,0,1-4.4,4.487,10.027,10.027,0,0,1-3.783.645,10.184,10.184,0,0,1-3.812-.645,7.446,7.446,0,0,1-4.4-4.487,9.742,9.742,0,0,1-.557-3.4V33.6h4.575V46.181a5.09,5.09,0,0,0,.293,1.789,3.831,3.831,0,0,0,.88,1.408,4.175,4.175,0,0,0,1.32.938,4.091,4.091,0,0,0,1.7.323,4.354,4.354,0,0,0,1.672-.323,4.175,4.175,0,0,0,1.32-.938,4.959,4.959,0,0,0,.88-1.408,5.09,5.09,0,0,0,.293-1.789V33.6h4.575Z" transform="translate(-40.072 -23.747)"/><path class="b" d="M130.873,43.512,124.011,33.6h5.748l4.428,7.273,4.252-7.273h5.543l-6.716,9.824,7.507,10.938h-5.748L133.952,46l-4.927,8.358H123.6Z" transform="translate(-87.354 -23.747)"/><path class="a" d="M285.2,33.6h8.035a13.988,13.988,0,0,1,2.991.293,7.321,7.321,0,0,1,2.493,1.026,4.973,4.973,0,0,1,1.7,1.935,6.71,6.71,0,0,1,.645,3.05,6.2,6.2,0,0,1-1.144,3.754,5.094,5.094,0,0,1-3.343,1.935l5.279,8.768h-5.484l-4.34-8.3h-2.258v8.3H285.2Zm4.575,8.592h2.7c.41,0,.85,0,1.32-.029a3.813,3.813,0,0,0,1.232-.264,1.968,1.968,0,0,0,.909-.7,2.2,2.2,0,0,0,.352-1.32,2.292,2.292,0,0,0-.323-1.261,1.9,1.9,0,0,0-.821-.7A2.748,2.748,0,0,0,294,37.588a9.44,9.44,0,0,0-1.261-.088h-2.991v4.692Z" transform="translate(-201.564 -23.747)"/><path class="a" d="M351.673,19.748h3.783l9.032,20.762h-5.161l-1.789-4.4h-8.065l-1.73,4.4H342.7ZM353.638,14h5.982l-5.073,4.223h-3.871Zm-.205,11.789-2.522,6.452h5.073Z" transform="translate(-242.201 -9.894)"/><path class="a" d="M419.86,45.037H418.1V42.046h1.759V33.6h6.862a19.342,19.342,0,0,1,4.751.557,11.079,11.079,0,0,1,3.9,1.789,8.656,8.656,0,0,1,2.639,3.226,10.937,10.937,0,0,1,1,4.839,10.266,10.266,0,0,1-.938,4.457,9.594,9.594,0,0,1-2.581,3.226,11.663,11.663,0,0,1-3.724,1.994,14.72,14.72,0,0,1-4.428.674H419.86Zm4.575-2.991h5.806v2.991h-5.806v5.1h2.375a13.481,13.481,0,0,0,2.962-.323,6.378,6.378,0,0,0,2.346-1.056,4.942,4.942,0,0,0,1.554-1.965,6.922,6.922,0,0,0,.587-2.962,5.656,5.656,0,0,0-.587-2.639,5.319,5.319,0,0,0-1.525-1.877A6.934,6.934,0,0,0,429.86,38.2a10.539,10.539,0,0,0-2.727-.352h-2.7Z" transform="translate(-295.49 -23.747)"/><path class="a" d="M516.041,51.483a16.941,16.941,0,0,1-4.223,1.525,20.814,20.814,0,0,1-4.487.469,13.1,13.1,0,0,1-4.487-.762,9.8,9.8,0,0,1-3.548-2.2,9.648,9.648,0,0,1-2.346-3.46,12.417,12.417,0,0,1,0-9.032,9.785,9.785,0,0,1,2.346-3.46,10.666,10.666,0,0,1,3.548-2.2,13.1,13.1,0,0,1,4.487-.762,16.341,16.341,0,0,1,4.6.616,8.875,8.875,0,0,1,3.666,2.053l-3.226,3.519a6.1,6.1,0,0,0-2.112-1.466,7.743,7.743,0,0,0-2.932-.5,6.937,6.937,0,0,0-2.639.5,5.836,5.836,0,0,0-2.053,1.408,6.773,6.773,0,0,0-1.32,2.111,7.84,7.84,0,0,0-.44,2.669,7.72,7.72,0,0,0,.44,2.669,5.611,5.611,0,0,0,1.32,2.111,6.085,6.085,0,0,0,2.053,1.408,6.937,6.937,0,0,0,2.639.5,9.535,9.535,0,0,0,2.581-.323,8.386,8.386,0,0,0,1.73-.7V44.855h-3.724V40.632h8.123Z" transform="translate(-350.616 -22.333)"/><path class="a" d="M583.162,47.412a17.265,17.265,0,0,1-.235,2.786,6.983,6.983,0,0,1-.938,2.4,4.794,4.794,0,0,1-2.023,1.672,8.02,8.02,0,0,1-3.4.616,7.107,7.107,0,0,1-4.164-1.173,5.465,5.465,0,0,1-2.2-3.666l4.194-1.026a1.97,1.97,0,0,0,.7,1.29,2.01,2.01,0,0,0,1.349.528,1.782,1.782,0,0,0,1.232-.411,2.355,2.355,0,0,0,.645-1,3.57,3.57,0,0,0,.235-1.261c.029-.469.059-.88.059-1.29V33.6h4.575V47.412Z" transform="translate(-402.986 -23.747)"/><path class="a" d="M624,28.857a11.687,11.687,0,0,1,.821-4.516,9.782,9.782,0,0,1,2.346-3.46,10.667,10.667,0,0,1,3.548-2.2,13.582,13.582,0,0,1,8.974,0,9.8,9.8,0,0,1,3.549,2.2,10.04,10.04,0,0,1,2.346,3.46,11.693,11.693,0,0,1,.821,4.516,12.265,12.265,0,0,1-.821,4.516,9.789,9.789,0,0,1-2.346,3.46,10.668,10.668,0,0,1-3.549,2.2,13.582,13.582,0,0,1-8.974,0,9.8,9.8,0,0,1-3.548-2.2,10.031,10.031,0,0,1-2.346-3.46A11.358,11.358,0,0,1,624,28.857Zm4.751,0a7.084,7.084,0,0,0,.469,2.669,5.936,5.936,0,0,0,1.29,2.111,6.085,6.085,0,0,0,2.053,1.408,6.938,6.938,0,0,0,2.639.5,7.091,7.091,0,0,0,2.669-.5,5.475,5.475,0,0,0,2.023-1.408,6.446,6.446,0,0,0,1.32-2.111,8.315,8.315,0,0,0,0-5.337,5.607,5.607,0,0,0-1.32-2.111,6.262,6.262,0,0,0-2.023-1.408,7.314,7.314,0,0,0-5.308,0,5.836,5.836,0,0,0-2.053,1.408,6.205,6.205,0,0,0-1.29,2.111A7.191,7.191,0,0,0,628.751,28.857Zm3.372-11.73a2.125,2.125,0,0,1-.968-.205,2.441,2.441,0,0,1-.762-.557,3.287,3.287,0,0,1-.528-.821,2.566,2.566,0,0,1-.205-.938,1.964,1.964,0,0,1,.205-.909,1.983,1.983,0,0,1,.528-.762,3.338,3.338,0,0,1,.733-.528,2,2,0,0,1,.938-.205,2.661,2.661,0,0,1,1.789.674,2.223,2.223,0,0,1,.763,1.73,2.455,2.455,0,0,1-2.493,2.522Zm6.1,0a2.124,2.124,0,0,1-.968-.205,2.437,2.437,0,0,1-.762-.557,3.286,3.286,0,0,1-.528-.821,2.57,2.57,0,0,1-.205-.938,1.966,1.966,0,0,1,.205-.909,1.982,1.982,0,0,1,.528-.762,3.334,3.334,0,0,1,.733-.528,2,2,0,0,1,.939-.205,2.661,2.661,0,0,1,1.789.674,2.223,2.223,0,0,1,.763,1.73,2.455,2.455,0,0,1-2.493,2.522Z" transform="translate(-441.009 -8.622)"/><path class="a" d="M711.6,33.6h13.93v4.223h-9.355v4.223h8.651v4.223h-8.651v8.094H711.6Z" transform="translate(-502.92 -23.747)"/></svg>