<svg xmlns="http://www.w3.org/2000/svg" viewBox="0 0 36 36"><defs><style>.a{fill:#fff;stroke:#b3b3b3;}.b{fill:#b3b3b3;}.c{stroke:none;}.d{fill:none;}</style></defs><g transform="translate(-10212 568)"><g class="a" transform="translate(10212 -568)"><circle class="c" cx="18" cy="18" r="18"/><circle class="d" cx="18" cy="18" r="17.5"/></g><path class="b" d="M14.667,12c-1.333,1.333-1.333,2.667-2.667,2.667S9.333,13.333,8,12,5.333,9.333,5.333,8,6.667,6.667,8,5.333,5.333,0,4,0,0,4,0,4c0,2.667,2.742,8.075,5.333,10.667S13.333,20,16,20c0,0,4-2.667,4-4S16,10.667,14.667,12Z" transform="translate(10220 -560)"/></g></svg>