<svg xmlns="http://www.w3.org/2000/svg" viewBox="0 0 101.749 54.974">
  <defs>
    <style>
      .cls-1 {
        fill: #f0d20a;
      }

      .cls-2 {
        fill: #fff;
        stroke: #ffde17;
        stroke-miterlimit: 10;
        stroke-width: 4px;
      }
    </style>
  </defs>
  <g id="Group_40" data-name="Group 40" transform="translate(-0.001 0)">
    <path id="Path_44" data-name="Path 44" class="cls-1" d="M16.33,34.38l4.56,14.91s18.09-7.17,29.49-7.17,29.49,7.17,29.49,7.17l4.56-14.91s-21.01-6.8-34.05-6.8S16.33,34.38,16.33,34.38Z"/>
    <path id="Path_45" data-name="Path 45" class="cls-1" d="M50.37,25.09c12.65,0,33.38,6.66,33.58,6.72l.92-2.85c-.87-.28-21.39-6.87-34.51-6.87s-33.64,6.59-34.51,6.87l.92,2.85C17,31.74,37.73,25.09,50.37,25.09Z"/>
    <path id="Path_46" data-name="Path 46" class="cls-2" d="M15.96,29.15l-3.61,7.3L4.3,37.62l5.83,5.68L8.75,51.32l7.21-3.78,7.2,3.78L21.78,43.3l5.83-5.68-8.05-1.17Z"/>
    <path id="Path_47" data-name="Path 47" class="cls-2" d="M50.37,4.52l7.17,14.53,16.04,2.33L61.98,32.69l2.74,15.97L50.37,41.12,36.03,48.66l2.74-15.97L27.17,21.38,43.2,19.05Z"/>
    <path id="Path_48" data-name="Path 48" class="cls-2" d="M85.79,29.15l3.6,7.3,8.06,1.17L91.62,43.3,93,51.32l-7.21-3.78-7.2,3.78,1.37-8.02-5.83-5.68,8.06-1.17Z"/>
  </g>
</svg>
