<svg xmlns="http://www.w3.org/2000/svg" viewBox="0 0 36 36"><defs><style>.a{fill:#f93;}.b{fill:#fff;}</style></defs><g transform="translate(-10258 568)"><circle class="a" cx="18" cy="18" r="18" transform="translate(10258 -568)"/><g transform="translate(10265 -1509.762)"><path class="b" d="M.268,952.4a.254.254,0,0,0-.268.268v.8l11,7.941,11-7.941v-.8a.254.254,0,0,0-.268-.268ZM0,954.788V965.6l6.52-6.117Zm22,0-6.52,4.7L22,965.6ZM7.4,960.1.778,966.324H21.222L14.6,960.1l-3.273,2.388a.523.523,0,0,1-.617,0L7.4,960.1Z" transform="translate(0)"/></g></g></svg>
